<?xml version="1.0" encoding="UTF-8"?>
<svg width="1500px" height="400px" viewBox="0 0 1500 400" version="1.1" xmlns="http://www.w3.org/2000/svg" xmlns:xlink="http://www.w3.org/1999/xlink">
    <title>logo-shapes</title>
    <g id="logo-shapes" stroke="none" stroke-width="1" fill="none" fill-rule="evenodd">
        <g id="Group" transform="translate(69.000000, 41.000000)">
            <path d="M498.167,239.664 C449.771,239.664 416.471,205.698 416.471,159.744 L416.471,159.3 C416.471,115.122 450.881,78.936 497.945,78.936 C521.477,78.936 537.017,84.264 551.003,94.032 C554.333,96.474 558.107,101.136 558.107,107.796 C558.107,117.12 550.559,124.668 541.235,124.668 C536.351,124.668 533.243,122.892 530.801,121.116 C521.477,114.456 511.487,110.46 496.835,110.46 C471.971,110.46 452.213,132.438 452.213,158.856 L452.213,159.3 C452.213,187.716 471.749,208.584 499.277,208.584 C511.709,208.584 522.809,205.476 531.467,199.26 L531.467,177.06 L508.379,177.06 C500.165,177.06 493.505,170.622 493.505,162.408 C493.505,154.194 500.165,147.534 508.379,147.534 L547.451,147.534 C556.997,147.534 564.545,155.082 564.545,164.628 L564.545,202.368 C564.545,212.358 560.771,219.24 552.557,224.124 C539.903,231.894 521.477,239.664 498.167,239.664 Z M662.225,239.442 C620.489,239.442 594.959,216.132 594.959,170.4 L594.959,97.362 C594.959,87.816 602.507,80.268 612.053,80.268 C621.599,80.268 629.147,87.816 629.147,97.362 L629.147,169.512 C629.147,194.82 641.801,207.918 662.669,207.918 C683.537,207.918 696.191,195.264 696.191,170.622 L696.191,97.362 C696.191,87.816 703.739,80.268 713.285,80.268 C722.831,80.268 730.379,87.816 730.379,97.362 L730.379,169.29 C730.379,216.354 703.961,239.442 662.225,239.442 Z M765.233,221.682 L765.233,97.806 C765.233,88.26 772.781,80.712 782.327,80.712 L786.101,80.712 C793.427,80.712 798.533,84.486 801.641,89.592 L842.933,156.858 L884.447,89.37 C887.999,83.598 892.883,80.712 899.765,80.712 L903.539,80.712 C913.085,80.712 920.633,88.26 920.633,97.806 L920.633,221.238 C920.633,230.784 913.085,238.332 903.539,238.332 C894.215,238.332 886.667,230.562 886.667,221.238 L886.667,143.76 L856.697,189.936 C853.145,195.264 848.705,198.594 842.489,198.594 C836.273,198.594 831.833,195.264 828.281,189.936 L798.755,144.426 L798.755,221.682 C798.755,231.006 791.207,238.332 781.883,238.332 C772.559,238.332 765.233,231.006 765.233,221.682 Z M957.929,219.906 L957.929,97.362 C957.929,87.816 965.477,80.268 975.023,80.268 C984.569,80.268 992.117,87.816 992.117,97.362 L992.117,205.92 L1055.387,205.92 C1064.045,205.92 1070.927,212.802 1070.927,221.46 C1070.927,230.118 1064.045,237 1055.387,237 L975.023,237 C965.477,237 957.929,229.452 957.929,219.906 Z M1112.441,237 C1102.895,237 1095.347,229.452 1095.347,219.906 L1095.347,98.694 C1095.347,89.148 1102.895,81.6 1112.441,81.6 L1198.577,81.6 C1207.013,81.6 1213.895,88.482 1213.895,96.918 C1213.895,105.354 1207.013,112.014 1198.577,112.014 L1129.313,112.014 L1129.313,143.538 L1188.587,143.538 C1197.023,143.538 1203.905,150.42 1203.905,158.856 C1203.905,167.292 1197.023,173.952 1188.587,173.952 L1129.313,173.952 L1129.313,206.586 L1199.687,206.586 C1208.123,206.586 1215.005,213.468 1215.005,221.904 C1215.005,230.34 1208.123,237 1199.687,237 L1112.441,237 Z M1280.273,221.238 L1280.273,113.124 L1247.417,113.124 C1238.759,113.124 1231.655,106.02 1231.655,97.362 C1231.655,88.704 1238.759,81.6 1247.417,81.6 L1347.317,81.6 C1355.975,81.6 1363.079,88.704 1363.079,97.362 C1363.079,106.02 1355.975,113.124 1347.317,113.124 L1314.461,113.124 L1314.461,221.238 C1314.461,230.784 1306.913,238.332 1297.367,238.332 C1287.821,238.332 1280.273,230.784 1280.273,221.238 Z" id="GUMLET" fill="#4A4A4A"></path>
            <g id="footer-logo" fill-rule="nonzero">
                <path d="M121.342505,213 L67,289.430162 C91.1377154,306.005755 118.73277,316.580876 150,318 L150,223.246694 C139.120703,222.042644 130.137964,218.567056 121.342505,213 Z" id="Shape" fill="#104A70"></path>
                <path d="M150,94.0874239 L149.371337,0 C118.485442,1.4921873 91.038934,11.4664671 67,28.0305737 L121.23232,104 C129.837208,98.610507 139.302518,95.162683 150,94.0874239 Z" id="Shape" fill="#ED7324"></path>
                <path d="M244,26.3086546 C219.643168,9.66405998 191.05425,0.932217586 159.597087,0 L159,93.9656918 C169.807782,94.7475518 180.055839,97.5946416 188.788947,103 L244,26.3086546 Z" id="Shape" fill="#FBBC05"></path>
                <path d="M96.6567202,183 L8,212.27906 C18.358948,241.189162 36.0349486,265.530283 59.7477531,284 L115,208.18886 C107.045941,201.428899 100.689764,192.816966 96.6567202,183 Z" id="Shape" fill="#0F1E2A"></path>
                <path d="M115,108.416308 L60.434414,33 C44.513422,45.4690007 31.5265908,60.6448294 21.2482927,78.2402681 C16.2406716,86.8128246 12.3781413,95.5833275 9,105.08035 L97.1171873,134 C101.112015,124.141006 107.077548,115.219767 115,108.416308 Z" id="Shape" fill="#DF5216"></path>
                <path d="M92.8162304,158.717559 C92.6897726,153.256506 93.2809411,147.457381 94.4653281,142.509246 L6.35880438,114 C2.27676637,128.140738 0,142.541755 0,158 C0,173.548075 1.77092381,187.79189 5.89020669,202 L95,173.9068 C93.7783682,168.883806 92.9426882,164.178612 92.8162304,158.717559 Z" id="Shape" fill="#D53C0D"></path>
                <path d="M197,209.293134 L252.24253,285 C275.907257,266.486549 294.704501,241.857612 305,212.92283 L216.193991,184 C212.028832,193.763467 205.175396,202.629131 197,209.293134 Z" id="Shape" fill="#378A9B"></path>
                <path d="M159,223.523446 L159,318 C190.352034,317.031086 219.746962,307.762818 244,291.216745 L188.545815,215 C179.74458,220.314813 169.774581,222.860727 159,223.523446 Z" id="Shape" fill="#1D77B2"></path>
                <path d="M307.308901,113 L201,145.718532 C202.188625,150.889864 202.664091,153.437793 202.648599,157.997258 C202.633108,162.556723 202.074998,164.972685 201,170.160848 L307.685364,203 C311.860352,188.780183 314,173.535753 314,158 C314.008194,142.38149 311.666148,127.532117 307.308901,113 Z" id="Shape" fill="#539E82"></path>
            </g>
        </g>
    </g>
</svg>