<?xml version="1.0" encoding="UTF-8" standalone="no"?><!DOCTYPE svg PUBLIC "-//W3C//DTD SVG 1.1//EN" "http://www.w3.org/Graphics/SVG/1.1/DTD/svg11.dtd"><svg width="129px" height="119px" version="1.1" xmlns="http://www.w3.org/2000/svg" xmlns:xlink="http://www.w3.org/1999/xlink" xml:space="preserve" xmlns:serif="http://www.serif.com/" style="fill-rule:evenodd;clip-rule:evenodd;stroke-linecap:round;stroke-linejoin:round;stroke-miterlimit:1.5;"><g id="Speaker_avatar"><g><path d="M64.929,59.284l-1.569,14.194l8.84,11.981l18.092,-0.981l23.355,-9.264l1.601,-9.206l-7.308,1.949l8.978,-7.406l-2.478,-7.409l-5.714,3.011l15.082,-11.489l0.391,-9.026l-34.856,19.166l-24.414,4.48Z" style="fill:#fff;stroke:#3e2740;stroke-width:2px;"/><path d="M72.422,84.448l5.661,-0.317l1.693,-26.558l-4.703,0.799l-2.651,26.076Z" style="fill:#c5bec6;"/><path d="M18.537,6.873l-8.061,3.474l-8.999,-4.204l6.543,9.88l11.115,2.109l-0.598,-11.259Z" style="fill:#fff;stroke:#3e2740;stroke-width:2px;"/><path d="M16.312,117.476l0.451,-111.861l60.412,-4.407l-6.392,116.029l-54.471,0.239Z" style="fill:#9c8d9f;stroke:#3e2740;stroke-width:2px;stroke-linecap:butt;stroke-miterlimit:1.41421;"/><path d="M63.726,67.55l-19.042,29.104l-5.479,-1.26l15.797,-30.533l8.724,2.689Z" style="fill:#46c2a9;stroke:#3e2740;stroke-width:2.27px;stroke-linecap:butt;stroke-miterlimit:1.41421;"/><path d="M38.161,22.729c3.486,3.486 3.486,9.147 0,12.633c-3.486,3.487 -9.147,3.487 -12.634,0c-3.486,-3.486 -3.486,-9.147 0,-12.633c3.487,-3.487 9.148,-3.487 12.634,0Z" style="fill:#fff;stroke:#3e2740;stroke-width:2px;"/><path d="M68.497,51.827c3.487,3.486 3.487,9.147 0,12.633c-3.486,3.487 -9.147,3.487 -12.633,0c-3.487,-3.486 -3.487,-9.147 0,-12.633c3.486,-3.486 9.147,-3.486 12.633,0Z" style="fill:#46c2a9;stroke:#3e2740;stroke-width:2.27px;stroke-linecap:butt;stroke-miterlimit:1.41421;"/><g><path d="M38.148,23.548c1.41,1.41 1.41,3.699 0,5.108c-1.41,1.41 -3.699,1.41 -5.108,0c-1.41,-1.409 -1.41,-3.698 0,-5.108c1.409,-1.41 3.698,-1.41 5.108,0Z" style="fill:#3e2740;"/><path d="M34.325,23.277c0.495,0.496 0.495,1.3 0,1.795c-0.495,0.495 -1.299,0.495 -1.795,0c-0.495,-0.495 -0.495,-1.299 0,-1.795c0.496,-0.495 1.3,-0.495 1.795,0Z" style="fill:#fff;"/></g><path d="M62.293,17.908c3.213,-1.274 7.018,-0.612 9.616,1.986c3.486,3.486 3.486,9.147 0,12.634c-1.822,1.822 -4.239,2.692 -6.629,2.609l-2.987,-17.229Z" style="fill:#fff;stroke:#3e2740;stroke-width:2px;"/><g><path d="M73.467,20.844c1.409,1.41 1.409,3.699 0,5.108c-1.41,1.41 -3.699,1.41 -5.109,0c-1.409,-1.409 -1.409,-3.698 0,-5.108c1.41,-1.41 3.699,-1.41 5.109,0Z" style="fill:#3e2740;"/><path d="M69.873,20.325c0.495,0.495 0.495,1.299 0,1.794c-0.496,0.496 -1.3,0.496 -1.795,0c-0.495,-0.495 -0.495,-1.299 0,-1.794c0.495,-0.496 1.299,-0.496 1.795,0Z" style="fill:#fff;"/></g><path d="M42.426,109.994l9.599,7.482l-13.768,-0.177l4.169,-7.305Z" style="fill:#fff;stroke:#3e2740;stroke-width:2px;"/><path d="M69.998,109.994l9.598,7.482l-13.768,-0.177l4.17,-7.305Z" style="fill:#fff;stroke:#3e2740;stroke-width:2px;"/><path d="M47.898,51.77l-0.2,-9.488l3.69,2.034l5.502,-0.31l-8.992,7.764Z" style="fill:#fff;stroke:#3e2740;stroke-width:2px;"/><path d="M47.749,39.616l0.835,-27.712l12.524,3.316l4.922,28.387l-9,-5.515l-9.281,1.524Z" style="fill:#fff;stroke:#3e2740;stroke-width:2px;"/><path d="M111.967,54.954l2.473,7.227l-6.389,4.472l-2.559,-6.959l6.475,-4.74Z" style="fill:#c5bec6;"/><path d="M114.6,53.025l2.318,7.526l-6.264,4.121l-2.529,-6.907l6.475,-4.74Z" style="fill:#fff;stroke:#3e2740;stroke-width:2px;"/><path d="M112.521,67.775l1.397,6.474l-0.953,0.214l-5.082,1.963l-1.577,-6.076l1.943,-1.422l4.272,-1.153Z" style="fill:#c5bec6;"/><path d="M115.323,65.916l1.137,8.639l-5.7,3.38l-1.912,-7.279l6.475,-4.74Z" style="fill:#fff;stroke:#3e2740;stroke-width:2px;"/><path d="M66.279,73.425l-4.073,9.114l-11.483,1.026l8.877,1.696l-5.876,8.039l-10.473,0.435l7.693,2.435l-6.716,7.367l-20.325,-2.049l-7.016,-6.497l-0.712,-30.441l17.879,6.693l32.225,2.182Z" style="fill:#725d77;"/><path d="M13.064,56.979l-8.909,12.358l1.918,15.768l16.317,12.589l22.554,2.661l5.386,-8.067l-6.876,-1.67l9.502,-1.341l5.446,-8.336l-8.02,-0.872l10.242,-2.11l5.102,-8.176l-28.636,-0.144l-24.026,-12.66Z" style="fill:#fff;stroke:#3e2740;stroke-width:2px;"/><path d="M113.952,32.884l13.255,-7.166" style="fill:none;stroke:#3e2740;stroke-width:2px;"/><path d="M49.261,95.901l14.824,-2.698" style="fill:none;stroke:#3e2740;stroke-width:2px;"/></g><g><g><path d="M11.827,117.476l115.38,0" style="fill:none;stroke:#3e2740;stroke-width:2.27px;"/><path d="M1.477,117.476l4.007,0" style="fill:none;stroke:#3e2740;stroke-width:2.27px;"/></g></g></g></svg>